<?xml version="1.0" encoding="utf-8"?>
<!-- Generated by IcoMoon.io -->
<!DOCTYPE svg PUBLIC "-//W3C//DTD SVG 1.1//EN" "http://www.w3.org/Graphics/SVG/1.1/DTD/svg11.dtd">
<svg version="1.1" xmlns="http://www.w3.org/2000/svg" xmlns:xlink="http://www.w3.org/1999/xlink" width="913" height="136" viewBox="0 0 913 136">
<g transform="translate(0 0)">
	<path d="M42.5 51h17v17h-17zM68 51h17v17h-17zM93.5 51h17v17h-17zM17 102h17v17h-17zM42.5 102h17v17h-17zM68 102h17v17h-17zM42.5 76.5h17v17h-17zM68 76.5h17v17h-17zM93.5 76.5h17v17h-17zM17 76.5h17v17h-17zM110.5 0v8.5h-17v-8.5h-59.5v8.5h-17v-8.5h-17v136h127.5v-136h-17zM119 127.5h-110.5v-93.5h110.5v93.5z" fill="#000000" />
</g>
<g transform="translate(152 0)">
	<path d="M136 25.821c-5.004 2.219-10.381 3.719-16.025 4.393 5.76-3.453 10.185-8.921 12.268-15.437-5.392 3.198-11.363 5.52-17.719 6.771-5.089-5.423-12.341-8.811-20.366-8.811-15.409 0-27.902 12.492-27.902 27.901 0 2.187 0.247 4.316 0.722 6.359-23.189-1.164-43.749-12.272-57.51-29.153-2.402 4.121-3.778 8.914-3.778 14.027 0 9.68 4.926 18.221 12.413 23.224-4.574-0.145-8.876-1.4-12.638-3.49-0.003 0.116-0.003 0.233-0.003 0.351 0 13.519 9.618 24.796 22.382 27.359-2.341 0.637-4.806 0.979-7.351 0.979-1.798 0-3.546-0.175-5.25-0.501 3.551 11.085 13.855 19.152 26.065 19.377-9.549 7.484-21.58 11.944-34.653 11.944-2.252 0-4.473-0.132-6.656-0.39 12.348 7.917 27.014 12.537 42.771 12.537 51.322 0 79.387-42.516 79.387-79.388 0-1.21-0.027-2.413-0.081-3.61 5.453-3.934 10.183-8.848 13.924-14.443z" fill="#000000" />
</g>
<g transform="translate(304 0)">
	<path d="M119.313 8.5h-102.313v17h-12.437c-2.338 0-4.563 1.664-4.563 4.001v8.5c0 2.338 2.226 4.499 4.563 4.499h12.437v8.5h-12.437c-2.338 0-4.563 1.664-4.563 4.001v8.5c0 2.338 2.226 4.499 4.563 4.499h12.437v8.5h-12.437c-2.338 0-4.563 1.664-4.563 4.001v8.5c0 2.337 2.226 4.499 4.563 4.499h12.437v8.5h-12.437c-2.338 0-4.563 1.664-4.563 4.001v8.5c0 2.337 2.226 4.499 4.563 4.499h12.437v17h102.313c4.695 0 8.187-4.054 8.187-8.749v-110.5c0-4.694-3.492-8.251-8.187-8.251zM42.5 127.5h-17v-8.5h4.563c2.337 0 3.937-2.161 3.937-4.499v-8.5c0-2.338-1.599-4.001-3.937-4.001h-4.563v-8.5h4.563c2.337 0 3.937-2.161 3.937-4.499v-8.5c0-2.338-1.599-4.001-3.937-4.001h-4.563v-8.5h4.563c2.337 0 3.937-2.161 3.937-4.499v-8.5c0-2.338-1.599-4.001-3.937-4.001h-4.563v-8.5h4.563c2.337 0 3.937-2.161 3.937-4.499v-8.5c0-2.338-1.599-4.001-3.937-4.001h-4.563v-8.5h17v110.5z" fill="#000000" />
</g>
<g transform="translate(456 0)">
	<path d="M97.616 106.964c-2.517-0.397-2.574-7.259-2.574-7.259s7.396-7.259 9.008-17.020c4.337 0 7.014-10.378 2.678-14.029 0.181-3.844 5.574-30.172-21.728-30.172-27.301 0-21.908 26.328-21.728 30.172-4.337 3.651-1.659 14.029 2.678 14.029 1.612 9.761 9.008 17.020 9.008 17.020s-0.057 6.862-2.574 7.259c-8.108 1.279-38.384 14.519-38.384 29.036h102c0-14.518-30.276-27.757-38.384-29.036zM45.695 109.279c5.856-3.606 12.966-6.947 18.798-8.955-2.092-2.979-4.422-7.031-5.888-11.829-2.046-1.669-3.711-4.055-4.781-6.986-1.071-2.936-1.477-6.223-1.143-9.255 0.24-2.177 0.86-4.206 1.813-5.988-0.578-6.187-0.985-18.333 6.966-27.191 3.083-3.435 6.98-5.905 11.648-7.396-0.833-8.601-5.201-18.696-22.107-18.696-27.301 0-21.908 26.328-21.728 30.172-4.337 3.651-1.659 14.029 2.678 14.029 1.612 9.761 9.008 17.020 9.008 17.020s-0.057 6.862-2.574 7.259c-8.108 1.28-38.384 14.519-38.384 29.037h43.774c0.626-0.408 1.263-0.815 1.92-1.221z" fill="#000000" />
</g>
<g transform="translate(608 0)">
	<path d="M48.307 95.898l5.485-7.679-6.010-6.011-7.679 5.485c-1.424-0.796-2.949-1.431-4.551-1.885l-1.552-9.308h-8.5l-1.551 9.308c-1.602 0.454-3.127 1.089-4.551 1.885l-7.679-5.485-6.011 6.011 5.485 7.679c-0.796 1.424-1.431 2.949-1.885 4.551l-9.308 1.552v8.5l9.308 1.552c0.454 1.602 1.089 3.127 1.885 4.551l-5.485 7.679 6.010 6.011 7.679-5.485c1.424 0.796 2.949 1.431 4.551 1.885l1.552 9.308h8.5l1.551-9.308c1.602-0.454 3.127-1.089 4.551-1.885l7.679 5.485 6.010-6.011-5.485-7.679c0.796-1.424 1.431-2.949 1.885-4.551l9.309-1.551v-8.5l-9.308-1.552c-0.454-1.602-1.089-3.127-1.885-4.551zM29.75 114.75c-4.695 0-8.5-3.806-8.5-8.5s3.805-8.5 8.5-8.5 8.5 3.806 8.5 8.5-3.805 8.5-8.5 8.5zM136 51v-8.5l-8.949-1.627c-0.165-1.069-0.376-2.122-0.627-3.16l7.644-4.927-3.253-7.853-8.891 1.922c-0.56-0.918-1.159-1.809-1.792-2.674l5.18-7.483-6.011-6.010-7.483 5.18c-0.865-0.633-1.756-1.232-2.674-1.792l1.922-8.891-7.853-3.253-4.927 7.644c-1.038-0.251-2.091-0.462-3.16-0.627l-1.627-8.949h-8.5l-1.627 8.949c-1.069 0.165-2.122 0.376-3.16 0.627l-4.927-7.644-7.853 3.253 1.922 8.891c-0.918 0.56-1.809 1.159-2.674 1.792l-7.483-5.18-6.010 6.010 5.18 7.483c-0.633 0.865-1.232 1.756-1.792 2.674l-8.891-1.922-3.253 7.853 7.644 4.927c-0.251 1.038-0.462 2.091-0.627 3.16l-8.949 1.627v8.5l8.949 1.627c0.165 1.069 0.376 2.122 0.627 3.16l-7.644 4.927 3.253 7.853 8.891-1.922c0.56 0.918 1.159 1.809 1.792 2.674l-5.18 7.483 6.010 6.011 7.483-5.18c0.865 0.633 1.756 1.232 2.674 1.792l-1.922 8.891 7.853 3.253 4.928-7.644c1.037 0.251 2.091 0.462 3.159 0.627l1.627 8.949h8.5l1.627-8.949c1.068-0.165 2.122-0.376 3.16-0.627l4.927 7.644 7.853-3.253-1.922-8.891c0.918-0.56 1.809-1.159 2.674-1.792l7.483 5.18 6.011-6.011-5.18-7.483c0.633-0.865 1.232-1.756 1.792-2.674l8.891 1.922 3.253-7.853-7.644-4.927c0.251-1.038 0.462-2.091 0.627-3.16l8.949-1.627zM89.25 65.237c-10.21 0-18.488-8.277-18.488-18.487s8.277-18.487 18.488-18.487 18.488 8.277 18.488 18.487c0 10.21-8.277 18.487-18.488 18.487z" fill="#000000" />
</g>
<g transform="translate(760 0)">
	<path d="M63.75 0v0c35.208 0 63.75 23.098 63.75 51.591s-28.542 51.591-63.75 51.591c-3.381 0-6.7-0.215-9.939-0.626-13.694 13.639-29.507 16.085-45.311 16.444v-3.338c8.533-4.164 15.406-11.749 15.406-20.418 0-1.209-0.095-2.397-0.27-3.559-14.418-9.458-23.637-23.905-23.637-40.095 0-28.493 28.542-51.591 63.75-51.591zM132.281 115.638c0 7.43 4.823 13.932 12.219 17.501v2.861c-13.696-0.308-26.268-2.404-38.136-14.095-2.808 0.352-5.684 0.537-8.614 0.537-12.68 0-24.359-3.421-33.683-9.169 19.215-0.067 37.355-6.223 51.111-17.355 6.934-5.612 12.404-12.196 16.258-19.57 4.086-7.818 6.158-16.148 6.158-24.757 0-1.388-0.060-2.767-0.167-4.14 9.638 7.96 15.573 18.809 15.573 30.769 0 13.877-7.99 26.26-20.485 34.367-0.152 0.996-0.234 2.013-0.234 3.050z" fill="#000000" />
</g>
</svg>
