<?xml version="1.0" encoding="utf-8"?>
<!-- Generated by IcoMoon.io -->
<!DOCTYPE svg PUBLIC "-//W3C//DTD SVG 1.1//EN" "http://www.w3.org/Graphics/SVG/1.1/DTD/svg11.dtd">
<svg version="1.1" xmlns="http://www.w3.org/2000/svg" xmlns:xlink="http://www.w3.org/1999/xlink" width="472" height="64" viewBox="0 0 472 64">
<g transform="translate(0 0)">
	<path d="M20 24h8v8h-8zM32 24h8v8h-8zM44 24h8v8h-8zM8 48h8v8h-8zM20 48h8v8h-8zM32 48h8v8h-8zM20 36h8v8h-8zM32 36h8v8h-8zM44 36h8v8h-8zM8 36h8v8h-8zM52 0v4h-8v-4h-28v4h-8v-4h-8v64h60v-64h-8zM56 60h-52v-44h52v44z" fill="#000000" />
</g>
<g transform="translate(80 0)">
	<path d="M64 12.151c-2.355 1.044-4.885 1.75-7.541 2.067 2.711-1.625 4.793-4.198 5.773-7.264-2.537 1.505-5.347 2.597-8.338 3.186-2.395-2.552-5.808-4.146-9.584-4.146-7.251 0-13.13 5.879-13.13 13.13 0 1.029 0.116 2.031 0.34 2.992-10.912-0.548-20.588-5.775-27.064-13.719-1.13 1.939-1.778 4.195-1.778 6.601 0 4.556 2.318 8.575 5.841 10.929-2.152-0.068-4.177-0.659-5.947-1.642-0.001 0.055-0.001 0.11-0.001 0.165 0 6.362 4.526 11.668 10.533 12.875-1.102 0.3-2.262 0.461-3.459 0.461-0.846 0-1.669-0.083-2.47-0.236 1.671 5.216 6.52 9.013 12.266 9.118-4.494 3.522-10.155 5.621-16.307 5.621-1.060 0-2.105-0.062-3.132-0.184 5.811 3.726 12.713 5.9 20.128 5.9 24.151 0 37.358-20.008 37.358-37.359 0-0.569-0.013-1.136-0.038-1.699 2.566-1.851 4.792-4.164 6.552-6.797z" fill="#000000" />
</g>
<g transform="translate(160 0)">
	<path d="M56.148 4h-48.148v8h-5.853c-1.1 0-2.147 0.783-2.147 1.883v4c0 1.1 1.048 2.117 2.147 2.117h5.853v4h-5.853c-1.1 0-2.147 0.783-2.147 1.883v4c0 1.1 1.048 2.117 2.147 2.117h5.853v4h-5.853c-1.1 0-2.147 0.783-2.147 1.883v4c0 1.1 1.048 2.117 2.147 2.117h5.853v4h-5.853c-1.1 0-2.147 0.783-2.147 1.883v4c0 1.1 1.048 2.117 2.147 2.117h5.853v8h48.148c2.209 0 3.852-1.908 3.852-4.117v-52c0-2.209-1.643-3.883-3.852-3.883zM20 60h-8v-4h2.148c1.1 0 1.852-1.017 1.852-2.117v-4c0-1.1-0.753-1.883-1.852-1.883h-2.148v-4h2.148c1.1 0 1.852-1.017 1.852-2.117v-4c0-1.1-0.753-1.883-1.852-1.883h-2.148v-4h2.148c1.1 0 1.852-1.017 1.852-2.117v-4c0-1.1-0.753-1.883-1.852-1.883h-2.148v-4h2.148c1.1 0 1.852-1.017 1.852-2.117v-4c0-1.1-0.752-1.883-1.852-1.883h-2.148v-4h8v52z" fill="#000000" />
</g>
<g transform="translate(240 0)">
	<path d="M45.937 50.336c-1.184-0.187-1.212-3.416-1.212-3.416s3.48-3.416 4.239-8.010c2.041 0 3.301-4.884 1.26-6.602 0.085-1.809 2.623-14.198-10.225-14.198-12.848 0-10.31 12.39-10.225 14.198-2.041 1.718-0.78 6.602 1.26 6.602 0.758 4.593 4.239 8.010 4.239 8.010s-0.027 3.229-1.212 3.416c-3.816 0.602-18.063 6.832-18.063 13.664h48c0-6.832-14.247-13.062-18.063-13.664zM21.503 51.426c2.756-1.697 6.102-3.269 8.846-4.214-0.985-1.402-2.081-3.309-2.771-5.566-0.963-0.785-1.747-1.908-2.25-3.288-0.504-1.382-0.695-2.928-0.538-4.355 0.113-1.025 0.405-1.979 0.853-2.818-0.272-2.912-0.463-8.627 3.278-12.796 1.451-1.617 3.285-2.779 5.481-3.48-0.392-4.048-2.447-8.798-10.403-8.798-12.848 0-10.31 12.39-10.225 14.198-2.041 1.718-0.78 6.602 1.26 6.602 0.758 4.593 4.239 8.009 4.239 8.009s-0.027 3.229-1.212 3.416c-3.816 0.602-18.063 6.832-18.063 13.664h20.6c0.294-0.192 0.594-0.384 0.904-0.574z" fill="#000000" />
</g>
<g transform="translate(320 0)">
	<path d="M22.733 45.128l2.581-3.614-2.828-2.828-3.614 2.581c-0.67-0.375-1.388-0.673-2.142-0.887l-0.73-4.38h-4l-0.73 4.38c-0.754 0.214-1.472 0.512-2.142 0.887l-3.614-2.581-2.829 2.828 2.581 3.614c-0.375 0.67-0.673 1.388-0.887 2.142l-4.38 0.73v4l4.38 0.73c0.214 0.754 0.512 1.471 0.887 2.142l-2.581 3.614 2.828 2.828 3.614-2.581c0.67 0.375 1.388 0.673 2.142 0.887l0.73 4.38h4l0.73-4.38c0.754-0.214 1.471-0.512 2.142-0.887l3.614 2.581 2.828-2.828-2.581-3.614c0.375-0.67 0.673-1.388 0.887-2.142l4.381-0.73v-4l-4.38-0.73c-0.214-0.754-0.512-1.471-0.887-2.142zM14 54c-2.209 0-4-1.791-4-4s1.791-4 4-4 4 1.791 4 4-1.791 4-4 4zM64 24v-4l-4.211-0.766c-0.078-0.503-0.177-0.999-0.295-1.487l3.597-2.319-1.531-3.696-4.184 0.904c-0.263-0.432-0.545-0.851-0.843-1.258l2.438-3.521-2.828-2.828-3.521 2.438c-0.407-0.298-0.826-0.58-1.258-0.843l0.904-4.184-3.696-1.531-2.319 3.597c-0.488-0.118-0.984-0.218-1.487-0.295l-0.766-4.211h-4l-0.766 4.211c-0.503 0.078-0.998 0.177-1.487 0.295l-2.319-3.597-3.695 1.531 0.904 4.184c-0.432 0.263-0.851 0.545-1.258 0.843l-3.521-2.438-2.828 2.828 2.438 3.521c-0.298 0.407-0.58 0.826-0.843 1.258l-4.184-0.904-1.531 3.696 3.597 2.319c-0.118 0.488-0.218 0.984-0.295 1.487l-4.212 0.766v4l4.211 0.766c0.078 0.503 0.177 0.999 0.295 1.487l-3.597 2.319 1.531 3.696 4.184-0.904c0.264 0.432 0.546 0.851 0.843 1.258l-2.438 3.521 2.828 2.828 3.521-2.438c0.407 0.298 0.826 0.58 1.258 0.843l-0.904 4.184 3.695 1.531 2.319-3.597c0.488 0.118 0.984 0.218 1.487 0.295l0.766 4.212h4l0.766-4.211c0.503-0.078 0.998-0.177 1.487-0.295l2.319 3.597 3.696-1.531-0.904-4.184c0.432-0.264 0.851-0.545 1.258-0.843l3.521 2.438 2.828-2.828-2.438-3.521c0.298-0.407 0.58-0.826 0.843-1.258l4.184 0.904 1.531-3.696-3.597-2.319c0.118-0.488 0.218-0.984 0.295-1.487l4.211-0.766zM42 30.7c-4.805 0-8.7-3.895-8.7-8.7s3.895-8.7 8.7-8.7 8.7 3.895 8.7 8.7c0 4.805-3.895 8.7-8.7 8.7z" fill="#000000" />
</g>
<g transform="translate(400 0)">
	<path d="M30 0v0c16.569 0 30 10.87 30 24.278s-13.431 24.278-30 24.278c-1.591 0-3.153-0.101-4.677-0.294-6.444 6.418-13.886 7.569-21.323 7.738v-1.571c4.016-1.96 7.25-5.529 7.25-9.608 0-0.569-0.044-1.128-0.127-1.675-6.785-4.451-11.123-11.249-11.123-18.868 0-13.408 13.431-24.278 30-24.278zM62.25 54.418c0 3.496 2.27 6.556 5.75 8.236v1.346c-6.445-0.145-12.362-1.131-17.946-6.633-1.321 0.166-2.675 0.252-4.054 0.252-5.967 0-11.463-1.61-15.851-4.315 9.042-0.032 17.579-2.928 24.052-8.167 3.263-2.641 5.837-5.739 7.651-9.209 1.923-3.679 2.898-7.599 2.898-11.65 0-0.653-0.028-1.302-0.079-1.948 4.536 3.746 7.329 8.851 7.329 14.48 0 6.53-3.76 12.358-9.64 16.173-0.071 0.468-0.11 0.947-0.11 1.435z" fill="#000000" />
</g>
</svg>
